<svg width="228" height="54" viewBox="0 0 228 54" fill="none" xmlns="http://www.w3.org/2000/svg">
<rect x="0.5" y="0.5" width="227" height="53" rx="9.5" fill="#ECFDF4" stroke="#C1F7DE"/>
<path d="M59.5227 36.7273H60.4886L61.2983 37.7926L61.5114 38.0767L62.7188 39.6818H61.7528L60.9574 38.6165L60.7585 38.3466L59.5227 36.7273ZM63.017 35.3636C63.017 36.1307 62.8786 36.7936 62.6016 37.3523C62.3246 37.911 61.9446 38.3419 61.4616 38.6449C60.9787 38.9479 60.4271 39.0994 59.8068 39.0994C59.1866 39.0994 58.6349 38.9479 58.152 38.6449C57.669 38.3419 57.2891 37.911 57.0121 37.3523C56.7351 36.7936 56.5966 36.1307 56.5966 35.3636C56.5966 34.5966 56.7351 33.9337 57.0121 33.375C57.2891 32.8163 57.669 32.3854 58.152 32.0824C58.6349 31.7794 59.1866 31.6278 59.8068 31.6278C60.4271 31.6278 60.9787 31.7794 61.4616 32.0824C61.9446 32.3854 62.3246 32.8163 62.6016 33.375C62.8786 33.9337 63.017 34.5966 63.017 35.3636ZM62.1648 35.3636C62.1648 34.7339 62.0594 34.2024 61.8487 33.7692C61.6404 33.3359 61.3575 33.008 61 32.7855C60.6449 32.563 60.2472 32.4517 59.8068 32.4517C59.3665 32.4517 58.9676 32.563 58.6101 32.7855C58.255 33.008 57.9721 33.3359 57.7614 33.7692C57.553 34.2024 57.4489 34.7339 57.4489 35.3636C57.4489 35.9934 57.553 36.5249 57.7614 36.9581C57.9721 37.3913 58.255 37.7192 58.6101 37.9418C58.9676 38.1643 59.3665 38.2756 59.8068 38.2756C60.2472 38.2756 60.6449 38.1643 61 37.9418C61.3575 37.7192 61.6404 37.3913 61.8487 36.9581C62.0594 36.5249 62.1648 35.9934 62.1648 35.3636ZM67.8217 36.7699V33.5455H68.6598V39H67.8217V38.0767H67.7649C67.6371 38.3537 67.4382 38.5893 67.1683 38.7834C66.8984 38.9751 66.5575 39.071 66.1456 39.071C65.8047 39.071 65.5017 38.9964 65.2365 38.8473C64.9714 38.6958 64.763 38.4685 64.6115 38.1655C64.46 37.8601 64.3842 37.4754 64.3842 37.0114V33.5455H65.2223V36.9545C65.2223 37.3523 65.3336 37.6695 65.5561 37.9062C65.781 38.143 66.0675 38.2614 66.4155 38.2614C66.6238 38.2614 66.8357 38.2081 67.0511 38.1016C67.2689 37.995 67.4512 37.8317 67.598 37.6115C67.7472 37.3913 67.8217 37.1108 67.8217 36.7699ZM72.4817 39.1136C71.9561 39.1136 71.5028 38.9976 71.1216 38.7656C70.7428 38.5312 70.4505 38.2045 70.2445 37.7855C70.0409 37.3641 69.9391 36.8741 69.9391 36.3153C69.9391 35.7566 70.0409 35.2642 70.2445 34.8381C70.4505 34.4096 70.7369 34.0758 71.1039 33.8366C71.4732 33.5952 71.9041 33.4744 72.3965 33.4744C72.6806 33.4744 72.9611 33.5218 73.2381 33.6165C73.5151 33.7112 73.7672 33.8651 73.9945 34.0781C74.2218 34.2888 74.4029 34.5682 74.5378 34.9162C74.6728 35.2642 74.7402 35.6927 74.7402 36.2017V36.5568H70.5357V35.8324H73.888C73.888 35.5246 73.8264 35.25 73.7033 35.0085C73.5826 34.767 73.4097 34.5765 73.1848 34.4368C72.9623 34.2971 72.6995 34.2273 72.3965 34.2273C72.0627 34.2273 71.7739 34.3101 71.53 34.4759C71.2885 34.6392 71.1027 34.8523 70.9725 35.1151C70.8423 35.3778 70.7772 35.6596 70.7772 35.9602V36.4432C70.7772 36.8551 70.8482 37.2043 70.9902 37.4908C71.1346 37.7749 71.3347 37.9915 71.5904 38.1406C71.8461 38.2874 72.1432 38.3608 72.4817 38.3608C72.7019 38.3608 72.9007 38.33 73.0783 38.2685C73.2582 38.2045 73.4133 38.1098 73.5435 37.9844C73.6737 37.8565 73.7743 37.6979 73.8453 37.5085L74.655 37.7358C74.5698 38.0104 74.4266 38.2519 74.2253 38.4602C74.0241 38.6662 73.7755 38.8272 73.4796 38.9432C73.1837 39.0568 72.851 39.1136 72.4817 39.1136ZM76.0151 39V33.5455H76.8248V34.3693H76.8816C76.981 34.0994 77.1609 33.8804 77.4213 33.7124C77.6818 33.5443 77.9753 33.4602 78.302 33.4602C78.3636 33.4602 78.4405 33.4614 78.5328 33.4638C78.6252 33.4661 78.695 33.4697 78.7424 33.4744V34.3267C78.714 34.3196 78.6489 34.3089 78.5471 34.2947C78.4476 34.2782 78.3423 34.2699 78.231 34.2699C77.9659 34.2699 77.7291 34.3255 77.5208 34.4368C77.3148 34.5457 77.1515 34.6972 77.0307 34.8913C76.9123 35.0831 76.8532 35.3021 76.8532 35.5483V39H76.0151ZM80.4416 41.0455C80.2995 41.0455 80.1729 41.0336 80.0616 41.0099C79.9503 40.9886 79.8734 40.9673 79.8308 40.946L80.0439 40.2074C80.2475 40.2595 80.4274 40.2784 80.5836 40.2642C80.7399 40.25 80.8784 40.1802 80.9991 40.0547C81.1222 39.9316 81.2347 39.7315 81.3365 39.4545L81.4927 39.0284L79.4757 33.5455H80.3848L81.8904 37.892H81.9473L83.4529 33.5455H84.362L82.0467 39.7955C81.9425 40.0772 81.8135 40.3104 81.6596 40.495C81.5057 40.6821 81.327 40.8205 81.1234 40.9105C80.9222 41.0005 80.6949 41.0455 80.4416 41.0455ZM90.4966 39.1136C89.9853 39.1136 89.5449 38.9929 89.1756 38.7514C88.8063 38.5099 88.5222 38.1773 88.3233 37.7536C88.1245 37.3298 88.025 36.8456 88.025 36.3011C88.025 35.7472 88.1268 35.2583 88.3304 34.8345C88.5364 34.4084 88.8229 34.0758 89.1898 33.8366C89.5591 33.5952 89.99 33.4744 90.4824 33.4744C90.8659 33.4744 91.2116 33.5455 91.5194 33.6875C91.8271 33.8295 92.0792 34.0284 92.2757 34.2841C92.4722 34.5398 92.5942 34.8381 92.6415 35.179H91.8034C91.7395 34.9304 91.5975 34.7102 91.3773 34.5185C91.1595 34.3243 90.8659 34.2273 90.4966 34.2273C90.1699 34.2273 89.8835 34.3125 89.6373 34.483C89.3934 34.651 89.2028 34.889 89.0655 35.1967C88.9306 35.5021 88.8631 35.8608 88.8631 36.2727C88.8631 36.6941 88.9294 37.0611 89.062 37.3736C89.1969 37.6861 89.3863 37.9287 89.6301 38.1016C89.8764 38.2744 90.1652 38.3608 90.4966 38.3608C90.7144 38.3608 90.9121 38.3229 91.0897 38.2472C91.2672 38.1714 91.4176 38.0625 91.5407 37.9205C91.6638 37.7784 91.7514 37.608 91.8034 37.4091H92.6415C92.5942 37.7311 92.477 38.0211 92.29 38.2791C92.1053 38.5348 91.8603 38.7384 91.5549 38.8899C91.2518 39.0391 90.8991 39.1136 90.4966 39.1136ZM96.0826 39.1136C95.5901 39.1136 95.1581 38.9964 94.7864 38.7621C94.4171 38.5277 94.1283 38.1998 93.9199 37.7784C93.714 37.357 93.611 36.8646 93.611 36.3011C93.611 35.733 93.714 35.237 93.9199 34.8132C94.1283 34.3894 94.4171 34.0604 94.7864 33.826C95.1581 33.5916 95.5901 33.4744 96.0826 33.4744C96.575 33.4744 97.0059 33.5916 97.3752 33.826C97.7469 34.0604 98.0357 34.3894 98.2417 34.8132C98.45 35.237 98.5542 35.733 98.5542 36.3011C98.5542 36.8646 98.45 37.357 98.2417 37.7784C98.0357 38.1998 97.7469 38.5277 97.3752 38.7621C97.0059 38.9964 96.575 39.1136 96.0826 39.1136ZM96.0826 38.3608C96.4566 38.3608 96.7644 38.2649 97.0059 38.0732C97.2473 37.8814 97.4261 37.6293 97.5421 37.3168C97.6581 37.0043 97.7161 36.6657 97.7161 36.3011C97.7161 35.9366 97.6581 35.5968 97.5421 35.282C97.4261 34.9671 97.2473 34.7126 97.0059 34.5185C96.7644 34.3243 96.4566 34.2273 96.0826 34.2273C95.7085 34.2273 95.4007 34.3243 95.1593 34.5185C94.9178 34.7126 94.7391 34.9671 94.623 35.282C94.507 35.5968 94.449 35.9366 94.449 36.3011C94.449 36.6657 94.507 37.0043 94.623 37.3168C94.7391 37.6293 94.9178 37.8814 95.1593 38.0732C95.4007 38.2649 95.7085 38.3608 96.0826 38.3608ZM99.8335 39V33.5455H100.643V34.3977H100.714C100.828 34.1065 101.011 33.8804 101.265 33.7195C101.518 33.5561 101.822 33.4744 102.177 33.4744C102.537 33.4744 102.837 33.5561 103.076 33.7195C103.317 33.8804 103.505 34.1065 103.64 34.3977H103.697C103.837 34.116 104.046 33.8923 104.326 33.7266C104.605 33.5585 104.94 33.4744 105.331 33.4744C105.818 33.4744 106.217 33.6271 106.527 33.9325C106.837 34.2356 106.993 34.7079 106.993 35.3494V39H106.154V35.3494C106.154 34.947 106.044 34.6593 105.824 34.4865C105.604 34.3137 105.345 34.2273 105.047 34.2273C104.663 34.2273 104.366 34.3433 104.155 34.5753C103.944 34.8049 103.839 35.0961 103.839 35.4489V39H102.987V35.2642C102.987 34.9541 102.886 34.7043 102.685 34.5149C102.484 34.3232 102.225 34.2273 101.907 34.2273C101.69 34.2273 101.486 34.2853 101.297 34.4013C101.109 34.5173 100.958 34.6783 100.842 34.8842C100.728 35.0878 100.672 35.3234 100.672 35.5909V39H99.8335ZM108.525 41.0455V33.5455H109.335V34.4119H109.434C109.496 34.3172 109.581 34.1965 109.69 34.0497C109.801 33.9006 109.96 33.768 110.165 33.652C110.374 33.5336 110.656 33.4744 111.011 33.4744C111.47 33.4744 111.875 33.5893 112.225 33.8189C112.576 34.0485 112.849 34.3741 113.045 34.7955C113.242 35.2169 113.34 35.714 113.34 36.2869C113.34 36.8646 113.242 37.3653 113.045 37.7891C112.849 38.2105 112.577 38.5372 112.229 38.7692C111.881 38.9988 111.479 39.1136 111.025 39.1136C110.674 39.1136 110.394 39.0556 110.183 38.9396C109.973 38.8213 109.81 38.6875 109.697 38.5384C109.583 38.3868 109.496 38.2614 109.434 38.1619H109.363V41.0455H108.525ZM109.349 36.2727C109.349 36.6847 109.409 37.0481 109.53 37.3629C109.651 37.6754 109.827 37.9205 110.059 38.098C110.291 38.2732 110.575 38.3608 110.911 38.3608C111.262 38.3608 111.554 38.2685 111.788 38.0838C112.025 37.8968 112.203 37.6458 112.321 37.331C112.442 37.0137 112.502 36.661 112.502 36.2727C112.502 35.8892 112.443 35.5436 112.325 35.2358C112.209 34.9257 112.032 34.6806 111.795 34.5007C111.561 34.3184 111.266 34.2273 110.911 34.2273C110.57 34.2273 110.284 34.3137 110.052 34.4865C109.82 34.657 109.645 34.8961 109.526 35.2038C109.408 35.5092 109.349 35.8655 109.349 36.2727ZM115.457 31.7273V39H114.619V31.7273H115.457ZM119.279 39.1136C118.753 39.1136 118.3 38.9976 117.919 38.7656C117.54 38.5312 117.247 38.2045 117.041 37.7855C116.838 37.3641 116.736 36.8741 116.736 36.3153C116.736 35.7566 116.838 35.2642 117.041 34.8381C117.247 34.4096 117.534 34.0758 117.901 33.8366C118.27 33.5952 118.701 33.4744 119.193 33.4744C119.477 33.4744 119.758 33.5218 120.035 33.6165C120.312 33.7112 120.564 33.8651 120.791 34.0781C121.019 34.2888 121.2 34.5682 121.335 34.9162C121.47 35.2642 121.537 35.6927 121.537 36.2017V36.5568H117.333V35.8324H120.685C120.685 35.5246 120.623 35.25 120.5 35.0085C120.379 34.767 120.207 34.5765 119.982 34.4368C119.759 34.2971 119.496 34.2273 119.193 34.2273C118.86 34.2273 118.571 34.3101 118.327 34.4759C118.085 34.6392 117.9 34.8523 117.769 35.1151C117.639 35.3778 117.574 35.6596 117.574 35.9602V36.4432C117.574 36.8551 117.645 37.2043 117.787 37.4908C117.932 37.7749 118.132 37.9915 118.387 38.1406C118.643 38.2874 118.94 38.3608 119.279 38.3608C119.499 38.3608 119.698 38.33 119.875 38.2685C120.055 38.2045 120.21 38.1098 120.34 37.9844C120.471 37.8565 120.571 37.6979 120.642 37.5085L121.452 37.7358C121.367 38.0104 121.223 38.2519 121.022 38.4602C120.821 38.6662 120.572 38.8272 120.276 38.9432C119.981 39.0568 119.648 39.1136 119.279 39.1136ZM125.184 33.5455V34.2557H122.357V33.5455H125.184ZM123.181 32.2386H124.019V37.4375C124.019 37.6742 124.054 37.8518 124.122 37.9702C124.193 38.0862 124.283 38.1643 124.392 38.2045C124.503 38.2424 124.621 38.2614 124.744 38.2614C124.836 38.2614 124.912 38.2566 124.971 38.2472C125.03 38.2353 125.078 38.2259 125.113 38.2188L125.284 38.9716C125.227 38.9929 125.147 39.0142 125.046 39.0355C124.944 39.0592 124.815 39.071 124.659 39.071C124.422 39.071 124.19 39.0201 123.963 38.9183C123.738 38.8165 123.551 38.6615 123.401 38.4531C123.255 38.2448 123.181 37.982 123.181 37.6648V32.2386ZM128.673 39.1136C128.148 39.1136 127.694 38.9976 127.313 38.7656C126.934 38.5312 126.642 38.2045 126.436 37.7855C126.232 37.3641 126.131 36.8741 126.131 36.3153C126.131 35.7566 126.232 35.2642 126.436 34.8381C126.642 34.4096 126.928 34.0758 127.295 33.8366C127.665 33.5952 128.095 33.4744 128.588 33.4744C128.872 33.4744 129.153 33.5218 129.43 33.6165C129.706 33.7112 129.959 33.8651 130.186 34.0781C130.413 34.2888 130.594 34.5682 130.729 34.9162C130.864 35.2642 130.932 35.6927 130.932 36.2017V36.5568H126.727V35.8324H130.079C130.079 35.5246 130.018 35.25 129.895 35.0085C129.774 34.767 129.601 34.5765 129.376 34.4368C129.154 34.2971 128.891 34.2273 128.588 34.2273C128.254 34.2273 127.965 34.3101 127.721 34.4759C127.48 34.6392 127.294 34.8523 127.164 35.1151C127.034 35.3778 126.969 35.6596 126.969 35.9602V36.4432C126.969 36.8551 127.04 37.2043 127.182 37.4908C127.326 37.7749 127.526 37.9915 127.782 38.1406C128.037 38.2874 128.335 38.3608 128.673 38.3608C128.893 38.3608 129.092 38.33 129.27 38.2685C129.45 38.2045 129.605 38.1098 129.735 37.9844C129.865 37.8565 129.966 37.6979 130.037 37.5085L130.846 37.7358C130.761 38.0104 130.618 38.2519 130.417 38.4602C130.215 38.6662 129.967 38.8272 129.671 38.9432C129.375 39.0568 129.042 39.1136 128.673 39.1136ZM134.266 39.1136C133.812 39.1136 133.41 38.9988 133.062 38.7692C132.714 38.5372 132.442 38.2105 132.246 37.7891C132.049 37.3653 131.951 36.8646 131.951 36.2869C131.951 35.714 132.049 35.2169 132.246 34.7955C132.442 34.3741 132.715 34.0485 133.066 33.8189C133.416 33.5893 133.821 33.4744 134.28 33.4744C134.635 33.4744 134.916 33.5336 135.122 33.652C135.33 33.768 135.489 33.9006 135.598 34.0497C135.709 34.1965 135.796 34.3172 135.857 34.4119H135.928V31.7273H136.766V39H135.956V38.1619H135.857C135.796 38.2614 135.708 38.3868 135.594 38.5384C135.481 38.6875 135.318 38.8213 135.108 38.9396C134.897 39.0556 134.617 39.1136 134.266 39.1136ZM134.38 38.3608C134.716 38.3608 135 38.2732 135.232 38.098C135.464 37.9205 135.64 37.6754 135.761 37.3629C135.882 37.0481 135.942 36.6847 135.942 36.2727C135.942 35.8655 135.883 35.5092 135.765 35.2038C135.646 34.8961 135.471 34.657 135.239 34.4865C135.007 34.3137 134.721 34.2273 134.38 34.2273C134.025 34.2273 133.729 34.3184 133.492 34.5007C133.258 34.6806 133.081 34.9257 132.963 35.2358C132.847 35.5436 132.789 35.8892 132.789 36.2727C132.789 36.661 132.848 37.0137 132.966 37.331C133.087 37.6458 133.265 37.8968 133.499 38.0838C133.736 38.2685 134.029 38.3608 134.38 38.3608ZM142.466 39L140.804 33.5455H141.684L142.863 37.7216H142.92L144.085 33.5455H144.98L146.131 37.7074H146.187L147.366 33.5455H148.247L146.585 39H145.761L144.568 34.8097H144.483L143.29 39H142.466ZM149.355 39V33.5455H150.193V39H149.355ZM149.781 32.6364C149.618 32.6364 149.477 32.5807 149.358 32.4695C149.242 32.3582 149.184 32.2244 149.184 32.0682C149.184 31.9119 149.242 31.7782 149.358 31.6669C149.477 31.5556 149.618 31.5 149.781 31.5C149.944 31.5 150.084 31.5556 150.2 31.6669C150.318 31.7782 150.378 31.9119 150.378 32.0682C150.378 32.2244 150.318 32.3582 150.2 32.4695C150.084 32.5807 149.944 32.6364 149.781 32.6364ZM154.1 33.5455V34.2557H151.273V33.5455H154.1ZM152.097 32.2386H152.935V37.4375C152.935 37.6742 152.97 37.8518 153.038 37.9702C153.109 38.0862 153.199 38.1643 153.308 38.2045C153.42 38.2424 153.537 38.2614 153.66 38.2614C153.752 38.2614 153.828 38.2566 153.887 38.2472C153.946 38.2353 153.994 38.2259 154.029 38.2188L154.2 38.9716C154.143 38.9929 154.063 39.0142 153.962 39.0355C153.86 39.0592 153.731 39.071 153.575 39.071C153.338 39.071 153.106 39.0201 152.879 38.9183C152.654 38.8165 152.467 38.6615 152.317 38.4531C152.171 38.2448 152.097 37.982 152.097 37.6648V32.2386ZM156.316 35.7188V39H155.478V31.7273H156.316V34.3977H156.387C156.515 34.116 156.707 33.8923 156.962 33.7266C157.22 33.5585 157.564 33.4744 157.992 33.4744C158.364 33.4744 158.689 33.549 158.969 33.6982C159.248 33.8449 159.465 34.071 159.619 34.3764C159.775 34.6795 159.853 35.0653 159.853 35.5341V39H159.015V35.5909C159.015 35.1577 158.902 34.8227 158.678 34.5859C158.455 34.3468 158.146 34.2273 157.751 34.2273C157.476 34.2273 157.23 34.2853 157.012 34.4013C156.797 34.5173 156.626 34.6866 156.501 34.9091C156.378 35.1316 156.316 35.4015 156.316 35.7188ZM163.602 39.1136C163.11 39.1136 162.678 38.9964 162.306 38.7621C161.937 38.5277 161.648 38.1998 161.439 37.7784C161.233 37.357 161.131 36.8646 161.131 36.3011C161.131 35.733 161.233 35.237 161.439 34.8132C161.648 34.3894 161.937 34.0604 162.306 33.826C162.678 33.5916 163.11 33.4744 163.602 33.4744C164.095 33.4744 164.525 33.5916 164.895 33.826C165.266 34.0604 165.555 34.3894 165.761 34.8132C165.97 35.237 166.074 35.733 166.074 36.3011C166.074 36.8646 165.97 37.357 165.761 37.7784C165.555 38.1998 165.266 38.5277 164.895 38.7621C164.525 38.9964 164.095 39.1136 163.602 39.1136ZM163.602 38.3608C163.976 38.3608 164.284 38.2649 164.525 38.0732C164.767 37.8814 164.946 37.6293 165.062 37.3168C165.178 37.0043 165.236 36.6657 165.236 36.3011C165.236 35.9366 165.178 35.5968 165.062 35.282C164.946 34.9671 164.767 34.7126 164.525 34.5185C164.284 34.3243 163.976 34.2273 163.602 34.2273C163.228 34.2273 162.92 34.3243 162.679 34.5185C162.437 34.7126 162.259 34.9671 162.143 35.282C162.027 35.5968 161.969 35.9366 161.969 36.3011C161.969 36.6657 162.027 37.0043 162.143 37.3168C162.259 37.6293 162.437 37.8814 162.679 38.0732C162.92 38.2649 163.228 38.3608 163.602 38.3608ZM170.79 36.7699V33.5455H171.629V39H170.79V38.0767H170.734C170.606 38.3537 170.407 38.5893 170.137 38.7834C169.867 38.9751 169.526 39.071 169.114 39.071C168.773 39.071 168.47 38.9964 168.205 38.8473C167.94 38.6958 167.732 38.4685 167.58 38.1655C167.429 37.8601 167.353 37.4754 167.353 37.0114V33.5455H168.191V36.9545C168.191 37.3523 168.302 37.6695 168.525 37.9062C168.75 38.143 169.036 38.2614 169.384 38.2614C169.593 38.2614 169.804 38.2081 170.02 38.1016C170.238 37.995 170.42 37.8317 170.567 37.6115C170.716 37.3913 170.79 37.1108 170.79 36.7699ZM175.536 33.5455V34.2557H172.709V33.5455H175.536ZM173.533 32.2386H174.371V37.4375C174.371 37.6742 174.405 37.8518 174.474 37.9702C174.545 38.0862 174.635 38.1643 174.744 38.2045C174.855 38.2424 174.972 38.2614 175.095 38.2614C175.188 38.2614 175.263 38.2566 175.323 38.2472C175.382 38.2353 175.429 38.2259 175.465 38.2188L175.635 38.9716C175.578 38.9929 175.499 39.0142 175.397 39.0355C175.295 39.0592 175.166 39.071 175.01 39.071C174.773 39.071 174.541 39.0201 174.314 38.9183C174.089 38.8165 173.902 38.6615 173.753 38.4531C173.606 38.2448 173.533 37.982 173.533 37.6648V32.2386ZM181.896 39.1136C181.37 39.1136 180.917 38.9976 180.536 38.7656C180.157 38.5312 179.865 38.2045 179.659 37.7855C179.455 37.3641 179.353 36.8741 179.353 36.3153C179.353 35.7566 179.455 35.2642 179.659 34.8381C179.865 34.4096 180.151 34.0758 180.518 33.8366C180.887 33.5952 181.318 33.4744 181.811 33.4744C182.095 33.4744 182.375 33.5218 182.652 33.6165C182.929 33.7112 183.181 33.8651 183.409 34.0781C183.636 34.2888 183.817 34.5682 183.952 34.9162C184.087 35.2642 184.154 35.6927 184.154 36.2017V36.5568H179.95V35.8324H183.302C183.302 35.5246 183.24 35.25 183.117 35.0085C182.997 34.767 182.824 34.5765 182.599 34.4368C182.376 34.2971 182.114 34.2273 181.811 34.2273C181.477 34.2273 181.188 34.3101 180.944 34.4759C180.703 34.6392 180.517 34.8523 180.387 35.1151C180.256 35.3778 180.191 35.6596 180.191 35.9602V36.4432C180.191 36.8551 180.262 37.2043 180.404 37.4908C180.549 37.7749 180.749 37.9915 181.004 38.1406C181.26 38.2874 181.557 38.3608 181.896 38.3608C182.116 38.3608 182.315 38.33 182.492 38.2685C182.672 38.2045 182.827 38.1098 182.958 37.9844C183.088 37.8565 183.188 37.6979 183.259 37.5085L184.069 37.7358C183.984 38.0104 183.841 38.2519 183.639 38.4602C183.438 38.6662 183.19 38.8272 182.894 38.9432C182.598 39.0568 182.265 39.1136 181.896 39.1136ZM185.429 39V33.5455H186.239V34.3693H186.296C186.395 34.0994 186.575 33.8804 186.835 33.7124C187.096 33.5443 187.389 33.4602 187.716 33.4602C187.778 33.4602 187.855 33.4614 187.947 33.4638C188.039 33.4661 188.109 33.4697 188.156 33.4744V34.3267C188.128 34.3196 188.063 34.3089 187.961 34.2947C187.862 34.2782 187.756 34.2699 187.645 34.2699C187.38 34.2699 187.143 34.3255 186.935 34.4368C186.729 34.5457 186.566 34.6972 186.445 34.8913C186.326 35.0831 186.267 35.3021 186.267 35.5483V39H185.429ZM189.15 39V33.5455H189.96V34.3693H190.016C190.116 34.0994 190.296 33.8804 190.556 33.7124C190.817 33.5443 191.11 33.4602 191.437 33.4602C191.498 33.4602 191.575 33.4614 191.668 33.4638C191.76 33.4661 191.83 33.4697 191.877 33.4744V34.3267C191.849 34.3196 191.784 34.3089 191.682 34.2947C191.582 34.2782 191.477 34.2699 191.366 34.2699C191.101 34.2699 190.864 34.3255 190.656 34.4368C190.45 34.5457 190.286 34.6972 190.165 34.8913C190.047 35.0831 189.988 35.3021 189.988 35.5483V39H189.15ZM194.92 39.1136C194.428 39.1136 193.996 38.9964 193.624 38.7621C193.255 38.5277 192.966 38.1998 192.758 37.7784C192.552 37.357 192.449 36.8646 192.449 36.3011C192.449 35.733 192.552 35.237 192.758 34.8132C192.966 34.3894 193.255 34.0604 193.624 33.826C193.996 33.5916 194.428 33.4744 194.92 33.4744C195.413 33.4744 195.844 33.5916 196.213 33.826C196.585 34.0604 196.874 34.3894 197.08 34.8132C197.288 35.237 197.392 35.733 197.392 36.3011C197.392 36.8646 197.288 37.357 197.08 37.7784C196.874 38.1998 196.585 38.5277 196.213 38.7621C195.844 38.9964 195.413 39.1136 194.92 39.1136ZM194.92 38.3608C195.295 38.3608 195.602 38.2649 195.844 38.0732C196.085 37.8814 196.264 37.6293 196.38 37.3168C196.496 37.0043 196.554 36.6657 196.554 36.3011C196.554 35.9366 196.496 35.5968 196.38 35.282C196.264 34.9671 196.085 34.7126 195.844 34.5185C195.602 34.3243 195.295 34.2273 194.92 34.2273C194.546 34.2273 194.239 34.3243 193.997 34.5185C193.756 34.7126 193.577 34.9671 193.461 35.282C193.345 35.5968 193.287 35.9366 193.287 36.3011C193.287 36.6657 193.345 37.0043 193.461 37.3168C193.577 37.6293 193.756 37.8814 193.997 38.0732C194.239 38.2649 194.546 38.3608 194.92 38.3608ZM198.671 39V33.5455H199.481V34.3693H199.538C199.637 34.0994 199.817 33.8804 200.078 33.7124C200.338 33.5443 200.632 33.4602 200.958 33.4602C201.02 33.4602 201.097 33.4614 201.189 33.4638C201.281 33.4661 201.351 33.4697 201.399 33.4744V34.3267C201.37 34.3196 201.305 34.3089 201.203 34.2947C201.104 34.2782 200.999 34.2699 200.887 34.2699C200.622 34.2699 200.385 34.3255 200.177 34.4368C199.971 34.5457 199.808 34.6972 199.687 34.8913C199.569 35.0831 199.509 35.3021 199.509 35.5483V39H198.671ZM206.256 34.767L205.503 34.9801C205.455 34.8546 205.386 34.7327 205.293 34.6143C205.203 34.4936 205.08 34.3942 204.924 34.3161C204.768 34.2379 204.568 34.1989 204.324 34.1989C203.99 34.1989 203.712 34.2758 203.489 34.4297C203.269 34.5812 203.159 34.7741 203.159 35.0085C203.159 35.2169 203.235 35.3814 203.386 35.5021C203.538 35.6229 203.775 35.7235 204.097 35.804L204.906 36.0028C205.394 36.1212 205.757 36.3023 205.996 36.5462C206.236 36.7876 206.355 37.099 206.355 37.4801C206.355 37.7926 206.265 38.072 206.085 38.3182C205.908 38.5644 205.659 38.7585 205.339 38.9006C205.02 39.0426 204.648 39.1136 204.224 39.1136C203.668 39.1136 203.208 38.9929 202.843 38.7514C202.478 38.5099 202.248 38.1572 202.151 37.6932L202.946 37.4943C203.022 37.7879 203.165 38.008 203.376 38.1548C203.589 38.3016 203.867 38.375 204.21 38.375C204.601 38.375 204.911 38.2921 205.141 38.1264C205.373 37.9583 205.489 37.7571 205.489 37.5227C205.489 37.3333 205.422 37.1747 205.29 37.0469C205.157 36.9167 204.954 36.8196 204.679 36.7557L203.77 36.5426C203.27 36.4242 202.903 36.2408 202.669 35.9922C202.437 35.7412 202.321 35.4276 202.321 35.0511C202.321 34.7434 202.407 34.4711 202.58 34.2344C202.755 33.9976 202.993 33.8118 203.294 33.6768C203.597 33.5419 203.94 33.4744 204.324 33.4744C204.864 33.4744 205.287 33.5928 205.595 33.8295C205.905 34.0663 206.125 34.3788 206.256 34.767Z" fill="#8BCEBD"/>
<path d="M57.9254 24V14.6182H64.0272V16.0429H59.6249V18.5899H63.7111V20.0146H59.6249V22.5753H64.0638V24H57.9254ZM67.0438 16.9636L68.4639 19.561L69.9069 16.9636H71.6614L69.5404 20.4818L71.698 24H69.9527L68.4639 21.4667L66.9888 24H65.2297L67.3736 20.4818L65.2847 16.9636H67.0438ZM75.7946 24.1374C75.0891 24.1374 74.4798 23.9908 73.9668 23.6977C73.4567 23.4014 73.0643 22.983 72.7894 22.4425C72.5146 21.8989 72.3772 21.2591 72.3772 20.523C72.3772 19.7993 72.5146 19.164 72.7894 18.6174C73.0674 18.0676 73.4552 17.6401 73.953 17.3347C74.4508 17.0262 75.0356 16.872 75.7075 16.872C76.1412 16.872 76.5504 16.9423 76.9352 17.0827C77.3231 17.2202 77.6651 17.4339 77.9614 17.7241C78.2606 18.0142 78.4958 18.3837 78.6668 18.8327C78.8378 19.2786 78.9234 19.8099 78.9234 20.4268V20.9353H73.1559V19.8176H77.3338C77.3307 19.5 77.262 19.2175 77.1276 18.9701C76.9932 18.7197 76.8054 18.5227 76.5642 18.3792C76.3259 18.2356 76.048 18.1638 75.7304 18.1638C75.3914 18.1638 75.0937 18.2463 74.8371 18.4112C74.5806 18.5731 74.3806 18.7869 74.237 19.0526C74.0965 19.3152 74.0248 19.6038 74.0217 19.9184V20.8941C74.0217 21.3033 74.0965 21.6545 74.2462 21.9477C74.3958 22.2379 74.605 22.4608 74.8738 22.6165C75.1425 22.7692 75.4571 22.8456 75.8175 22.8456C76.0587 22.8456 76.2771 22.812 76.4725 22.7448C76.668 22.6746 76.8375 22.5723 76.981 22.4379C77.1246 22.3035 77.233 22.1371 77.3063 21.9386L78.8546 22.1126C78.7569 22.5219 78.5706 22.8792 78.2958 23.1846C78.024 23.4869 77.6758 23.7221 77.2513 23.8901C76.8268 24.055 76.3412 24.1374 75.7946 24.1374ZM83.3955 24.1374C82.6931 24.1374 82.0899 23.9832 81.586 23.6748C81.0852 23.3663 80.6989 22.9403 80.4271 22.3967C80.1583 21.85 80.0239 21.2209 80.0239 20.5093C80.0239 19.7947 80.1614 19.164 80.4362 18.6174C80.7111 18.0676 81.0989 17.6401 81.5998 17.3347C82.1037 17.0262 82.6992 16.872 83.3864 16.872C83.9575 16.872 84.4629 16.9774 84.9027 17.1881C85.3455 17.3958 85.6982 17.6905 85.9609 18.0722C86.2235 18.4509 86.3732 18.8938 86.4098 19.4007H84.8248C84.7607 19.0617 84.608 18.7792 84.3667 18.5532C84.1285 18.3242 83.8093 18.2097 83.4093 18.2097C83.0703 18.2097 82.7725 18.3013 82.516 18.4845C82.2594 18.6647 82.0594 18.9243 81.9159 19.2633C81.7754 19.6023 81.7051 20.0085 81.7051 20.4818C81.7051 20.9613 81.7754 21.3736 81.9159 21.7187C82.0564 22.0607 82.2533 22.3249 82.5068 22.5112C82.7634 22.6944 83.0642 22.786 83.4093 22.786C83.6536 22.786 83.8719 22.7402 84.0643 22.6486C84.2598 22.5539 84.4232 22.418 84.5545 22.2409C84.6858 22.0638 84.7759 21.8485 84.8248 21.595H86.4098C86.3701 22.0928 86.2235 22.5341 85.97 22.9189C85.7165 23.3006 85.3714 23.5999 84.9347 23.8168C84.498 24.0305 83.9849 24.1374 83.3955 24.1374ZM92.2563 21.0407V16.9636H93.9146V24H92.3066V22.7494H92.2334C92.0745 23.1434 91.8134 23.4656 91.45 23.716C91.0896 23.9664 90.6453 24.0916 90.1169 24.0916C89.6558 24.0916 89.2481 23.9893 88.8938 23.7847C88.5426 23.577 88.2678 23.2762 88.0693 22.8822C87.8707 22.4852 87.7715 22.0058 87.7715 21.4438V16.9636H89.4298V21.1873C89.4298 21.6332 89.552 21.9874 89.7963 22.2501C90.0406 22.5127 90.3613 22.644 90.7583 22.644C91.0026 22.644 91.2393 22.5845 91.4683 22.4654C91.6974 22.3463 91.8852 22.1691 92.0318 21.934C92.1814 21.6958 92.2563 21.398 92.2563 21.0407ZM99.1334 16.9636V18.2463H95.0884V16.9636H99.1334ZM96.0871 15.2778H97.7454V21.8836C97.7454 22.1065 97.779 22.2776 97.8462 22.3967C97.9164 22.5127 98.008 22.5921 98.121 22.6349C98.234 22.6776 98.3593 22.699 98.4967 22.699C98.6005 22.699 98.6952 22.6914 98.7807 22.6761C98.8693 22.6608 98.9365 22.6471 98.9823 22.6349L99.2617 23.9313C99.1731 23.9618 99.0464 23.9954 98.8815 24.0321C98.7196 24.0687 98.5211 24.0901 98.286 24.0962C97.8706 24.1084 97.4965 24.0458 97.1636 23.9084C96.8307 23.7679 96.5666 23.5511 96.3711 23.2579C96.1787 22.9647 96.084 22.5982 96.0871 22.1585V15.2778ZM103.56 24.1374C102.854 24.1374 102.245 23.9908 101.732 23.6977C101.222 23.4014 100.83 22.983 100.555 22.4425C100.28 21.8989 100.142 21.2591 100.142 20.523C100.142 19.7993 100.28 19.164 100.555 18.6174C100.833 18.0676 101.22 17.6401 101.718 17.3347C102.216 17.0262 102.801 16.872 103.473 16.872C103.906 16.872 104.316 16.9423 104.7 17.0827C105.088 17.2202 105.43 17.4339 105.727 17.7241C106.026 18.0142 106.261 18.3837 106.432 18.8327C106.603 19.2786 106.689 19.8099 106.689 20.4268V20.9353H100.921V19.8176H105.099C105.096 19.5 105.027 19.2175 104.893 18.9701C104.758 18.7197 104.571 18.5227 104.329 18.3792C104.091 18.2356 103.813 18.1638 103.496 18.1638C103.157 18.1638 102.859 18.2463 102.602 18.4112C102.346 18.5731 102.146 18.7869 102.002 19.0526C101.862 19.3152 101.79 19.6038 101.787 19.9184V20.8941C101.787 21.3033 101.862 21.6545 102.011 21.9477C102.161 22.2379 102.37 22.4608 102.639 22.6165C102.908 22.7692 103.222 22.8456 103.583 22.8456C103.824 22.8456 104.042 22.812 104.238 22.7448C104.433 22.6746 104.603 22.5723 104.746 22.4379C104.89 22.3035 104.998 22.1371 105.072 21.9386L106.62 22.1126C106.522 22.5219 106.336 22.8792 106.061 23.1846C105.789 23.4869 105.441 23.7221 105.017 23.8901C104.592 24.055 104.106 24.1374 103.56 24.1374ZM110.703 24.1237C110.15 24.1237 109.655 23.9817 109.218 23.6977C108.782 23.4136 108.437 23.0013 108.183 22.4608C107.93 21.9202 107.803 21.2636 107.803 20.491C107.803 19.7092 107.931 19.0495 108.188 18.512C108.447 17.9714 108.797 17.5637 109.237 17.2889C109.677 17.011 110.167 16.872 110.707 16.872C111.12 16.872 111.459 16.9423 111.724 17.0827C111.99 17.2202 112.201 17.3866 112.356 17.5821C112.512 17.7745 112.633 17.9562 112.718 18.1272H112.787V14.6182H114.45V24H112.819V22.8914H112.718C112.633 23.0624 112.509 23.2441 112.347 23.4365C112.185 23.6259 111.972 23.7877 111.706 23.9221C111.44 24.0565 111.106 24.1237 110.703 24.1237ZM111.165 22.7631C111.517 22.7631 111.816 22.6685 112.063 22.4791C112.311 22.2867 112.498 22.0195 112.627 21.6775C112.755 21.3354 112.819 20.9369 112.819 20.4818C112.819 20.0268 112.755 19.6313 112.627 19.2953C112.501 18.9594 112.315 18.6983 112.068 18.512C111.823 18.3257 111.523 18.2326 111.165 18.2326C110.796 18.2326 110.487 18.3288 110.24 18.5212C109.993 18.7136 109.806 18.9793 109.681 19.3183C109.556 19.6572 109.493 20.0451 109.493 20.4818C109.493 20.9216 109.556 21.314 109.681 21.6591C109.809 22.0012 109.997 22.2714 110.245 22.47C110.495 22.6654 110.802 22.7631 111.165 22.7631ZM124.589 17.1973C124.546 16.7972 124.366 16.4857 124.048 16.2627C123.734 16.0398 123.324 15.9283 122.82 15.9283C122.466 15.9283 122.162 15.9818 121.909 16.0887C121.655 16.1956 121.461 16.3406 121.327 16.5239C121.193 16.7071 121.124 16.9163 121.121 17.1515C121.121 17.3469 121.165 17.5164 121.254 17.6599C121.345 17.8035 121.469 17.9256 121.625 18.0264C121.781 18.1241 121.953 18.2066 122.142 18.2738C122.332 18.341 122.523 18.3975 122.715 18.4433L123.595 18.6632C123.949 18.7456 124.289 18.8571 124.616 18.9976C124.946 19.1381 125.241 19.3152 125.5 19.529C125.763 19.7428 125.971 20.0008 126.123 20.3032C126.276 20.6055 126.352 20.9598 126.352 21.3659C126.352 21.9157 126.212 22.3997 125.931 22.8181C125.65 23.2335 125.244 23.5587 124.712 23.7939C124.184 24.026 123.544 24.142 122.793 24.142C122.063 24.142 121.429 24.029 120.892 23.803C120.357 23.577 119.939 23.2472 119.637 22.8135C119.337 22.3799 119.176 21.8515 119.151 21.2285H120.823C120.848 21.5553 120.948 21.8271 121.126 22.0439C121.303 22.2608 121.533 22.4226 121.817 22.5295C122.104 22.6364 122.425 22.6898 122.779 22.6898C123.149 22.6898 123.472 22.6349 123.75 22.5249C124.031 22.4119 124.251 22.2562 124.41 22.0577C124.569 21.8561 124.65 21.621 124.653 21.3522C124.65 21.1079 124.578 20.9063 124.438 20.7475C124.297 20.5857 124.1 20.4513 123.847 20.3444C123.596 20.2344 123.303 20.1367 122.967 20.0512L121.9 19.7763C121.127 19.5778 120.516 19.277 120.067 18.8739C119.621 18.4677 119.398 17.9287 119.398 17.2568C119.398 16.704 119.548 16.22 119.847 15.8047C120.15 15.3893 120.561 15.0671 121.08 14.8381C121.599 14.606 122.187 14.4899 122.843 14.4899C123.509 14.4899 124.092 14.606 124.593 14.8381C125.097 15.0671 125.493 15.3863 125.78 15.7955C126.067 16.2017 126.215 16.6689 126.224 17.1973H124.589ZM132.279 21.0407V16.9636H133.937V24H132.329V22.7494H132.256C132.097 23.1434 131.836 23.4656 131.473 23.716C131.112 23.9664 130.668 24.0916 130.14 24.0916C129.679 24.0916 129.271 23.9893 128.917 23.7847C128.565 23.577 128.291 23.2762 128.092 22.8822C127.893 22.4852 127.794 22.0058 127.794 21.4438V16.9636H129.453V21.1873C129.453 21.6332 129.575 21.9874 129.819 22.2501C130.063 22.5127 130.384 22.644 130.781 22.644C131.025 22.644 131.262 22.5845 131.491 22.4654C131.72 22.3463 131.908 22.1691 132.055 21.934C132.204 21.6958 132.279 21.398 132.279 21.0407ZM138.712 24.1374C138.009 24.1374 137.406 23.9832 136.902 23.6748C136.402 23.3663 136.015 22.9403 135.743 22.3967C135.475 21.85 135.34 21.2209 135.34 20.5093C135.34 19.7947 135.478 19.164 135.753 18.6174C136.027 18.0676 136.415 17.6401 136.916 17.3347C137.42 17.0262 138.016 16.872 138.703 16.872C139.274 16.872 139.779 16.9774 140.219 17.1881C140.662 17.3958 141.015 17.6905 141.277 18.0722C141.54 18.4509 141.689 18.8938 141.726 19.4007H140.141C140.077 19.0617 139.924 18.7792 139.683 18.5532C139.445 18.3242 139.126 18.2097 138.726 18.2097C138.387 18.2097 138.089 18.3013 137.832 18.4845C137.576 18.6647 137.376 18.9243 137.232 19.2633C137.092 19.6023 137.021 20.0085 137.021 20.4818C137.021 20.9613 137.092 21.3736 137.232 21.7187C137.373 22.0607 137.57 22.3249 137.823 22.5112C138.08 22.6944 138.38 22.786 138.726 22.786C138.97 22.786 139.188 22.7402 139.381 22.6486C139.576 22.5539 139.739 22.418 139.871 22.2409C140.002 22.0638 140.092 21.8485 140.141 21.595H141.726C141.686 22.0928 141.54 22.5341 141.286 22.9189C141.033 23.3006 140.688 23.5999 140.251 23.8168C139.814 24.0305 139.301 24.1374 138.712 24.1374ZM146.157 24.1374C145.455 24.1374 144.851 23.9832 144.348 23.6748C143.847 23.3663 143.46 22.9403 143.189 22.3967C142.92 21.85 142.785 21.2209 142.785 20.5093C142.785 19.7947 142.923 19.164 143.198 18.6174C143.473 18.0676 143.86 17.6401 144.361 17.3347C144.865 17.0262 145.461 16.872 146.148 16.872C146.719 16.872 147.224 16.9774 147.664 17.1881C148.107 17.3958 148.46 17.6905 148.722 18.0722C148.985 18.4509 149.135 18.8938 149.171 19.4007H147.586C147.522 19.0617 147.369 18.7792 147.128 18.5532C146.89 18.3242 146.571 18.2097 146.171 18.2097C145.832 18.2097 145.534 18.3013 145.278 18.4845C145.021 18.6647 144.821 18.9243 144.677 19.2633C144.537 19.6023 144.467 20.0085 144.467 20.4818C144.467 20.9613 144.537 21.3736 144.677 21.7187C144.818 22.0607 145.015 22.3249 145.268 22.5112C145.525 22.6944 145.826 22.786 146.171 22.786C146.415 22.786 146.633 22.7402 146.826 22.6486C147.021 22.5539 147.185 22.418 147.316 22.2409C147.447 22.0638 147.537 21.8485 147.586 21.595H149.171C149.132 22.0928 148.985 22.5341 148.732 22.9189C148.478 23.3006 148.133 23.5999 147.696 23.8168C147.26 24.0305 146.746 24.1374 146.157 24.1374ZM153.648 24.1374C152.943 24.1374 152.333 23.9908 151.82 23.6977C151.31 23.4014 150.918 22.983 150.643 22.4425C150.368 21.8989 150.231 21.2591 150.231 20.523C150.231 19.7993 150.368 19.164 150.643 18.6174C150.921 18.0676 151.309 17.6401 151.807 17.3347C152.304 17.0262 152.889 16.872 153.561 16.872C153.995 16.872 154.404 16.9423 154.789 17.0827C155.177 17.2202 155.519 17.4339 155.815 17.7241C156.114 18.0142 156.349 18.3837 156.52 18.8327C156.691 19.2786 156.777 19.8099 156.777 20.4268V20.9353H151.009V19.8176H155.187C155.184 19.5 155.116 19.2175 154.981 18.9701C154.847 18.7197 154.659 18.5227 154.418 18.3792C154.179 18.2356 153.902 18.1638 153.584 18.1638C153.245 18.1638 152.947 18.2463 152.691 18.4112C152.434 18.5731 152.234 18.7869 152.091 19.0526C151.95 19.3152 151.878 19.6038 151.875 19.9184V20.8941C151.875 21.3033 151.95 21.6545 152.1 21.9477C152.249 22.2379 152.459 22.4608 152.727 22.6165C152.996 22.7692 153.311 22.8456 153.671 22.8456C153.912 22.8456 154.131 22.812 154.326 22.7448C154.522 22.6746 154.691 22.5723 154.835 22.4379C154.978 22.3035 155.086 22.1371 155.16 21.9386L156.708 22.1126C156.61 22.5219 156.424 22.8792 156.149 23.1846C155.877 23.4869 155.529 23.7221 155.105 23.8901C154.68 24.055 154.195 24.1374 153.648 24.1374ZM163.741 18.8235L162.229 18.9884C162.187 18.8357 162.112 18.6922 162.005 18.5578C161.901 18.4234 161.761 18.315 161.583 18.2326C161.406 18.1501 161.189 18.1089 160.933 18.1089C160.588 18.1089 160.298 18.1837 160.063 18.3333C159.83 18.483 159.716 18.6769 159.719 18.9151C159.716 19.1197 159.791 19.2862 159.943 19.4145C160.099 19.5427 160.356 19.6481 160.713 19.7305L161.913 19.9871C162.579 20.1306 163.074 20.3581 163.398 20.6696C163.724 20.9811 163.889 21.3888 163.892 21.8928C163.889 22.3356 163.759 22.7265 163.503 23.0655C163.249 23.4014 162.897 23.6641 162.445 23.8534C161.993 24.0428 161.474 24.1374 160.887 24.1374C160.026 24.1374 159.333 23.9572 158.807 23.5969C158.282 23.2335 157.969 22.728 157.868 22.0806L159.485 21.9248C159.559 22.2424 159.714 22.4822 159.953 22.644C160.191 22.8059 160.501 22.8868 160.883 22.8868C161.277 22.8868 161.593 22.8059 161.831 22.644C162.072 22.4822 162.193 22.2821 162.193 22.0439C162.193 21.8424 162.115 21.6759 161.959 21.5446C161.806 21.4133 161.568 21.3125 161.244 21.2423L160.044 20.9903C159.369 20.8498 158.87 20.6131 158.546 20.2803C158.223 19.9443 158.062 19.5198 158.065 19.0067C158.062 18.5731 158.18 18.1974 158.418 17.8798C158.659 17.5592 158.994 17.3118 159.421 17.1377C159.852 16.9606 160.348 16.872 160.91 16.872C161.735 16.872 162.384 17.0476 162.857 17.3988C163.333 17.75 163.628 18.2249 163.741 18.8235ZM170.821 18.8235L169.309 18.9884C169.266 18.8357 169.192 18.6922 169.085 18.5578C168.981 18.4234 168.84 18.315 168.663 18.2326C168.486 18.1501 168.269 18.1089 168.013 18.1089C167.668 18.1089 167.378 18.1837 167.142 18.3333C166.91 18.483 166.796 18.6769 166.799 18.9151C166.796 19.1197 166.871 19.2862 167.023 19.4145C167.179 19.5427 167.436 19.6481 167.793 19.7305L168.993 19.9871C169.659 20.1306 170.154 20.3581 170.477 20.6696C170.804 20.9811 170.969 21.3888 170.972 21.8928C170.969 22.3356 170.839 22.7265 170.583 23.0655C170.329 23.4014 169.977 23.6641 169.525 23.8534C169.073 24.0428 168.553 24.1374 167.967 24.1374C167.106 24.1374 166.413 23.9572 165.887 23.5969C165.362 23.2335 165.049 22.728 164.948 22.0806L166.565 21.9248C166.639 22.2424 166.794 22.4822 167.033 22.644C167.271 22.8059 167.581 22.8868 167.962 22.8868C168.356 22.8868 168.672 22.8059 168.911 22.644C169.152 22.4822 169.273 22.2821 169.273 22.0439C169.273 21.8424 169.195 21.6759 169.039 21.5446C168.886 21.4133 168.648 21.3125 168.324 21.2423L167.124 20.9903C166.449 20.8498 165.95 20.6131 165.626 20.2803C165.302 19.9443 165.142 19.5198 165.145 19.0067C165.142 18.5731 165.26 18.1974 165.498 17.8798C165.739 17.5592 166.074 17.3118 166.501 17.1377C166.932 16.9606 167.428 16.872 167.99 16.872C168.815 16.872 169.463 17.0476 169.937 17.3988C170.413 17.75 170.708 18.2249 170.821 18.8235ZM175.904 16.9636V18.2463H171.744V16.9636H175.904ZM172.784 24V16.2994C172.784 15.826 172.882 15.4321 173.077 15.1175C173.276 14.8029 173.541 14.5678 173.874 14.412C174.207 14.2563 174.577 14.1784 174.983 14.1784C175.27 14.1784 175.525 14.2013 175.748 14.2471C175.971 14.2929 176.136 14.3342 176.243 14.3708L175.913 15.6535C175.842 15.6321 175.754 15.6107 175.647 15.5893C175.54 15.5649 175.421 15.5527 175.29 15.5527C174.981 15.5527 174.763 15.6275 174.635 15.7772C174.509 15.9238 174.447 16.1345 174.447 16.4093V24H172.784ZM181.687 21.0407V16.9636H183.345V24H181.737V22.7494H181.664C181.505 23.1434 181.244 23.4656 180.881 23.716C180.52 23.9664 180.076 24.0916 179.548 24.0916C179.087 24.0916 178.679 23.9893 178.325 23.7847C177.973 23.577 177.699 23.2762 177.5 22.8822C177.302 22.4852 177.202 22.0058 177.202 21.4438V16.9636H178.861V21.1873C178.861 21.6332 178.983 21.9874 179.227 22.2501C179.471 22.5127 179.792 22.644 180.189 22.644C180.433 22.644 180.67 22.5845 180.899 22.4654C181.128 22.3463 181.316 22.1691 181.463 21.934C181.612 21.6958 181.687 21.398 181.687 21.0407ZM186.709 14.6182V24H185.051V14.6182H186.709ZM190.072 14.6182V24H188.414V14.6182H190.072ZM192.808 26.6386C192.582 26.6386 192.373 26.6203 192.181 26.5837C191.992 26.5501 191.84 26.5104 191.727 26.4646L192.112 25.1727C192.353 25.243 192.569 25.2766 192.758 25.2735C192.947 25.2705 193.114 25.2109 193.257 25.0949C193.404 24.9819 193.528 24.7925 193.628 24.5268L193.77 24.1466L191.219 16.9636H192.978L194.6 22.2776H194.673L196.299 16.9636H198.063L195.246 24.8521C195.114 25.2246 194.94 25.5438 194.723 25.8095C194.506 26.0782 194.241 26.2828 193.926 26.4233C193.615 26.5669 193.242 26.6386 192.808 26.6386Z" fill="#52A28E"/>
<g filter="url(#filter0_di_265_352)">
<circle cx="33" cy="28" r="13" fill="#00CE78"/>
</g>
<path d="M37.8945 24.854L32.1348 32.8534C32.1013 32.8999 32.0616 32.9367 32.0179 32.9619C31.9742 32.9871 31.9274 33 31.8801 33C31.8328 33 31.7859 32.9871 31.7422 32.9619C31.6985 32.9367 31.6588 32.8999 31.6254 32.8534L29.1055 29.3536C29.0379 29.2598 29 29.1326 29 28.9999C29 28.8672 29.0379 28.74 29.1055 28.6462C29.173 28.5524 29.2647 28.4997 29.3602 28.4997C29.4557 28.4997 29.5473 28.5524 29.6149 28.6462L31.8801 31.7928L37.3851 24.1465C37.4527 24.0527 37.5443 24 37.6398 24C37.7353 24 37.827 24.0527 37.8945 24.1465C37.9621 24.2403 38 24.3676 38 24.5002C38 24.6329 37.9621 24.7602 37.8945 24.854Z" fill="white"/>
<defs>
<filter id="filter0_di_265_352" x="16" y="13" width="40" height="38" filterUnits="userSpaceOnUse" color-interpolation-filters="sRGB">
<feFlood flood-opacity="0" result="BackgroundImageFix"/>
<feColorMatrix in="SourceAlpha" type="matrix" values="0 0 0 0 0 0 0 0 0 0 0 0 0 0 0 0 0 0 127 0" result="hardAlpha"/>
<feOffset dy="2"/>
<feGaussianBlur stdDeviation="2"/>
<feComposite in2="hardAlpha" operator="out"/>
<feColorMatrix type="matrix" values="0 0 0 0 0.016642 0 0 0 0 0.384615 0 0 0 0 0.157698 0 0 0 0.25 0"/>
<feBlend mode="normal" in2="BackgroundImageFix" result="effect1_dropShadow_265_352"/>
<feBlend mode="normal" in="SourceGraphic" in2="effect1_dropShadow_265_352" result="shape"/>
<feColorMatrix in="SourceAlpha" type="matrix" values="0 0 0 0 0 0 0 0 0 0 0 0 0 0 0 0 0 0 127 0" result="hardAlpha"/>
<feOffset dx="10" dy="10"/>
<feGaussianBlur stdDeviation="5"/>
<feComposite in2="hardAlpha" operator="arithmetic" k2="-1" k3="1"/>
<feColorMatrix type="matrix" values="0 0 0 0 0.00275055 0 0 0 0 0.572115 0 0 0 0 0.221007 0 0 0 0.25 0"/>
<feBlend mode="normal" in2="shape" result="effect2_innerShadow_265_352"/>
</filter>
</defs>
</svg>
